<svg width="198" height="23" viewBox="0 0 198 23" fill="none" xmlns="http://www.w3.org/2000/svg">
<path fill-rule="evenodd" clip-rule="evenodd" d="M86.1799 10.5H0V12.5H86.1799V10.5ZM111.108 12.5H198V10.5H111.108V12.5Z" fill="#EC5598"/>
<path fill-rule="evenodd" clip-rule="evenodd" d="M89.317 7.2315C87.0793 10.3114 87.762 14.6222 90.8419 16.8598C90.9786 16.9592 91.1183 17.0531 91.2608 17.1417C91.4405 17.2533 91.6766 17.1982 91.7882 17.0186C91.8999 16.8389 91.8447 16.6028 91.6651 16.4912C91.5383 16.4124 91.4139 16.3287 91.2921 16.2402C88.5544 14.2512 87.9475 10.4194 89.9366 7.68169C91.2311 5.89994 93.3533 4.97179 95.5053 5.18551C95.7158 5.20641 95.9033 5.05273 95.9242 4.84227C95.9451 4.63181 95.7915 4.44425 95.581 4.42335C93.1609 4.18302 90.773 5.22739 89.317 7.2315Z" fill="#EC5598"/>
<path fill-rule="evenodd" clip-rule="evenodd" d="M92.4684 19.8367C94.706 22.9166 99.0168 23.5994 102.097 21.3617C102.26 21.2429 102.418 21.1177 102.569 20.9863C102.729 20.8477 102.746 20.6058 102.607 20.4461C102.469 20.2864 102.227 20.2692 102.067 20.4079C101.932 20.5248 101.792 20.6363 101.647 20.7421C98.9088 22.7311 95.077 22.1242 93.088 19.3865C92.0727 17.989 91.7064 16.2634 92.0332 14.6014C92.074 14.3939 91.9388 14.1926 91.7313 14.1518C91.5238 14.111 91.3225 14.2462 91.2817 14.4537C90.9142 16.3225 91.3265 18.2651 92.4684 19.8367Z" fill="#EC5598"/>
<path fill-rule="evenodd" clip-rule="evenodd" d="M105.43 20.7349C109.051 19.5585 111.032 15.6697 109.856 12.0491C109.792 11.8512 109.719 11.6572 109.638 11.4674C109.555 11.2729 109.33 11.1824 109.135 11.2654C108.941 11.3484 108.85 11.5734 108.933 11.7679C109.005 11.9368 109.07 12.1095 109.128 12.2857C110.173 15.5041 108.412 18.9608 105.194 20.0065C102.321 20.94 99.2084 19.6374 97.8476 16.9765C97.7513 16.7882 97.5206 16.7136 97.3323 16.8099C97.144 16.9062 97.0694 17.1369 97.1657 17.3252C98.6972 20.3199 102.198 21.7851 105.43 20.7349Z" fill="#EC5598"/>
<path fill-rule="evenodd" clip-rule="evenodd" d="M110.29 8.68485C110.29 4.87788 107.204 1.79172 103.397 1.79172C103.187 1.79172 102.977 1.80116 102.769 1.81992C102.559 1.83894 102.403 2.02512 102.422 2.23576C102.441 2.4464 102.628 2.60174 102.838 2.58272C103.023 2.56603 103.21 2.55762 103.397 2.55762C106.781 2.55762 109.524 5.30088 109.524 8.68485C109.524 10.6998 108.545 12.5496 106.93 13.6913C106.758 13.8134 106.717 14.0524 106.839 14.2251C106.961 14.3978 107.2 14.4388 107.372 14.3167C109.188 13.0328 110.29 10.9511 110.29 8.68485Z" fill="#EC5598"/>
<path fill-rule="evenodd" clip-rule="evenodd" d="M92.3741 5.00158C93.4198 1.78322 96.8765 0.0219469 100.095 1.06765C102.507 1.85139 104.163 4.02459 104.318 6.51356C104.332 6.72464 104.514 6.88504 104.725 6.87181C104.936 6.85858 105.096 6.67674 105.083 6.46566C104.907 3.66564 103.045 1.2209 100.331 0.339235C96.7108 -0.837184 92.8221 1.14425 91.6456 4.7649C91.5717 4.99258 91.5097 5.22268 91.4599 5.45455C91.4155 5.66133 91.5471 5.86497 91.7539 5.9094C91.9607 5.95383 92.1643 5.82222 92.2087 5.61544C92.2531 5.40916 92.3082 5.20435 92.3741 5.00158Z" fill="#EC5598"/>
<path fill-rule="evenodd" clip-rule="evenodd" d="M97.2698 6.77009C93.8858 6.77009 91.1426 9.51335 91.1426 12.8973C91.1426 16.2813 93.8858 19.0246 97.2698 19.0246C98.0482 19.0246 98.8071 18.8791 99.5165 18.5994C99.7133 18.5219 99.8099 18.2995 99.7323 18.1027C99.6547 17.9059 99.4323 17.8093 99.2356 17.8869C98.6153 18.1315 97.9517 18.2586 97.2698 18.2586C94.3088 18.2586 91.9085 15.8583 91.9085 12.8973C91.9085 9.93634 94.3088 7.536 97.2698 7.536C97.9433 7.536 98.5991 7.66006 99.2129 7.89887C99.4101 7.97555 99.632 7.87793 99.7087 7.68082C99.7854 7.48371 99.6877 7.26176 99.4906 7.18508C98.7886 6.91197 98.0387 6.77009 97.2698 6.77009Z" fill="#EC5598"/>
<path fill-rule="evenodd" clip-rule="evenodd" d="M95.355 12.8971C95.355 16.2811 98.0982 19.0244 101.482 19.0244C104.866 19.0244 107.609 16.2811 107.609 12.8971C107.609 11.1788 106.898 9.5735 105.668 8.42244C105.513 8.27793 105.271 8.28597 105.127 8.4404C104.982 8.59483 104.99 8.83716 105.145 8.98167C106.221 9.98939 106.844 11.393 106.844 12.8971C106.844 15.8581 104.443 18.2585 101.482 18.2585C98.5212 18.2585 96.1209 15.8581 96.1209 12.8971C96.1209 12.6314 96.1402 12.3682 96.1784 12.1088C96.2092 11.8996 96.0645 11.705 95.8553 11.6742C95.6461 11.6434 95.4515 11.788 95.4206 11.9973C95.377 12.2935 95.355 12.594 95.355 12.8971Z" fill="#EC5598"/>
<path fill-rule="evenodd" clip-rule="evenodd" d="M99.5673 3.70648C102.528 3.70648 104.929 6.10683 104.929 9.06781C104.929 10.7995 104.102 12.3925 102.731 13.3965L101.93 13.8958C101.751 14.0078 101.696 14.2441 101.808 14.4235C101.92 14.6028 102.156 14.6574 102.336 14.5454L103.16 14.0303C104.75 12.8677 105.695 11.0463 105.695 9.06781C105.695 5.68383 102.951 2.94058 99.5673 2.94058C96.5042 2.94058 93.9233 5.2015 93.5002 8.20625C93.4708 8.41569 93.6166 8.60937 93.8261 8.63886C94.0355 8.66835 94.2292 8.52248 94.2587 8.31304C94.6287 5.68502 96.8873 3.70648 99.5673 3.70648Z" fill="#EC5598"/>
<path fill-rule="evenodd" clip-rule="evenodd" d="M103.78 11.3655C103.78 9.03903 101.894 7.15305 99.5675 7.15305C97.241 7.15305 95.355 9.03903 95.355 11.3655C95.355 13.692 97.241 15.578 99.5675 15.578C101.894 15.578 103.78 13.692 103.78 11.3655ZM96.1209 11.3655C96.1209 9.46203 97.664 7.91895 99.5675 7.91895C101.471 7.91895 103.014 9.46203 103.014 11.3655C103.014 13.269 101.471 14.8121 99.5675 14.8121C97.664 14.8121 96.1209 13.269 96.1209 11.3655Z" fill="#EC5598"/>
<path fill-rule="evenodd" clip-rule="evenodd" d="M101.865 11.3655C101.865 10.0965 100.836 9.06781 99.5675 9.06781C98.2985 9.06781 97.2698 10.0965 97.2698 11.3655C97.2698 12.6345 98.2985 13.6632 99.5675 13.6632C100.836 13.6632 101.865 12.6345 101.865 11.3655ZM98.0357 11.3655C98.0357 10.5195 98.7215 9.83371 99.5675 9.83371C100.413 9.83371 101.099 10.5195 101.099 11.3655C101.099 12.2115 100.413 12.8973 99.5675 12.8973C98.7215 12.8973 98.0357 12.2115 98.0357 11.3655Z" fill="#EC5598"/>
<path fill-rule="evenodd" clip-rule="evenodd" d="M96.7581 12.2843C96.569 14.1525 97.5922 15.578 99.5674 15.578V14.8121C98.0901 14.8121 97.3731 13.8132 97.5201 12.3615C97.6606 10.9734 98.5556 9.83371 99.5674 9.83371V9.06781C98.0959 9.06781 96.9339 10.5475 96.7581 12.2843Z" fill="#EC5598"/>
</svg>
